Coordinates
version=1
nRows=16
nColumns=33
inDegrees=yes

Units are S.I. units (second, meters, Newtons, ...)
Angles are in degrees.

endheader
time	ground_thorax_rot_x	ground_thorax_rot_y	ground_thorax_rot_z	ground_thorax_tx	ground_thorax_ty	ground_thorax_tz	clav_prot_r	clav_elev_r	scapula_abduction_r	scapula_elevation_r	scapula_upward_rot_r	scapula_winging_r	shoulder_elv_r	plane_of_elev_r	axial_rot_r	elbow_flexion_r	pro_sup_r	wrist_flex_r	wrist_dev_r	clav_prot_l	clav_elev_l	scapula_abduction_l	scapula_elevation_l	scapula_upward_rot_l	scapula_winging_l	shoulder_elv_l	plane_of_elev_l	axial_rot_l	elbow_flexion_l	pro_sup_l	wrist_flex_l	wrist_dev_l
     11.80000000	     39.02567282	     13.14347147	     16.77198531	   -168.45667781	    808.64247740	      7.62844777	     13.99474496	     40.99754790	     40.36841928	     45.00000000	    -27.97355073	   2070.47791375	   -836.51526667	    147.79947109	   -127.60054329	   1091.01114944	     -2.51564734	     17.68541520	     12.42791634	      6.71485561	    -45.00000000	    -36.51471385	     45.00000000	    -41.72214142	  -2066.78986547	    265.00785142	    138.09567527	    155.32411171	   2529.40688965	     -4.67210736	     10.41278533	    -17.54478449
     11.81000000	     38.96027736	     13.46806104	     17.14793937	   -164.87272869	    806.22374296	      7.68288992	     13.64643296	     40.84198879	     40.24721169	     45.00000000	    -28.06353657	   2070.61904495	   -836.73875909	    147.63750827	   -127.62508415	   1090.90203449	     -2.20052077	     17.53628053	     12.60937608	      7.00782608	    -45.00000000	    -36.48215883	     45.00000000	    -42.11143250	  -2067.04768556	    264.85490273	    137.91368620	    155.45946642	   2529.31186073	     -3.98253992	     10.42067181	    -17.50071852
     11.82000000	     38.96296109	     13.66140298	     17.36072696	   -161.25179165	    803.77882335	      7.73637526	     13.97753074	     41.03525655	     40.38050979	     45.00000000	    -27.96495334	   2070.77965625	   -836.99068506	    147.80750025	   -127.54644247	   1090.79685762	     -1.77953793	     17.42189685	     12.83369367	      6.72901652	    -45.00000000	    -36.36241694	     45.00000000	    -42.16688128	  -2067.51927394	    264.62980522	    137.93872276	    155.77844690	   2529.25649324	     -3.14040560	     10.52507520	    -17.46672103
     11.83000000	     38.88721307	     13.95968172	     17.73054880	   -157.60017216	    801.31180686	      7.78698222	     14.04239582	     40.98483858	     40.37605330	     45.00000000	    -28.20913895	   2071.01927136	   -837.23577863	    147.74348454	   -127.70699612	   1090.70983016	     -1.30884432	     17.29887494	     13.03730210	      6.73731634	    -45.00000000	    -36.29612272	     45.00000000	    -42.51569852	  -2067.87784565	    264.50379050	    137.88447425	    155.86222667	   2529.09964126	     -2.22732954	     10.55921346	    -17.43112330
     11.84000000	     38.88322587	     14.17775211	     18.01774414	   -153.92579592	    798.82738561	      7.83321292	     14.22557059	     41.13285769	     40.47425022	     45.00000000	    -28.05405044	   2071.09266857	   -837.52690177	    147.83415640	   -127.46287410	   1090.57586335	     -0.72057493	     17.19669895	     13.17789913	      6.56784108	    -45.00000000	    -36.12457738	     45.00000000	    -42.73877624	  -2068.30799292	    264.24110007	    137.86398278	    156.16684360	   2529.05862473	     -1.24891927	     10.62689713	    -17.42821493
     11.85000000	     38.88326765	     14.39650858	     18.32995341	   -150.24162882	    796.33541657	      7.87353312	     14.41284802	     41.23538726	     40.49678422	     45.00000000	    -27.98383306	   2071.29308754	   -837.83300736	    147.89128444	   -127.24690430	   1090.47883042	     -0.05468598	     17.10920012	     13.31251406	      6.40276825	    -45.00000000	    -35.98789040	     45.00000000	    -42.97160650	  -2068.71579627	    264.03113557	    137.90643516	    156.25936325	   2528.91751250	     -0.16979568	     10.65917247	    -17.42039315
     11.86000000	     38.90617126	     14.54679689	     18.52533242	   -146.55088123	    793.84031721	      7.90689487	     14.85662691	     41.47045048	     40.63060756	     45.00000000	    -27.66944250	   2071.53708432	   -838.07346359	    148.22729116	   -127.02736655	   1090.40167490	      0.78813201	     17.05957300	     13.44939338	      5.99467503	    -45.00000000	    -35.78520656	     45.00000000	    -42.96132962	  -2069.16528660	    263.71491036	    137.95002506	    156.44314836	   2528.84098939	      1.11314335	     10.70256440	    -17.44481212
     11.87000000	     38.85812139	     14.85623711	     18.87897915	   -142.86345985	    791.35362812	      7.93223192	     14.91581060	     41.48683471	     40.67329293	     45.00000000	    -27.80078493	   2071.71786064	   -838.29359753	    148.27583104	   -126.90015966	   1090.26196412	      1.67180149	     16.98363830	     13.55743280	      5.96295354	    -45.00000000	    -35.69924130	     45.00000000	    -43.45282971	  -2069.59863400	    263.58606772	    137.90465397	    156.63820337	   2528.73348813	      2.37933227	     10.73381735	    -17.47204698
     11.88000000	     38.84958918	     15.09938384	     19.19866115	   -139.18428161	    788.88422479	      7.94894784	     15.10396689	     41.57679801	     40.66647986	     45.00000000	    -27.72623704	   2071.93021022	   -838.54367802	    148.37824835	   -126.74903571	   1090.18854947	      2.67866397	     16.94098748	     13.63915541	      5.78454134	    -45.00000000	    -35.50420159	     45.00000000	    -43.76324398	  -2069.99483929	    263.36330171	    137.91263473	    156.78131418	   2528.65872347	      3.69581820	     10.72460717	    -17.51759440
     11.89000000	     38.84808123	     15.34081197	     19.51120490	   -135.52557095	    786.44848307	      7.95642375	     15.33014321	     41.65557978	     40.73263499	     45.00000000	    -27.67533874	   2072.18387577	   -838.78862697	    148.57592301	   -126.59837916	   1090.07335710	      3.79954958	     16.90816927	     13.69946616	      5.57443186	    -45.00000000	    -35.28894685	     45.00000000	    -44.04556953	  -2070.40151399	    263.09931029	    137.89587626	    156.83435145	   2528.51254960	      5.08575929	     10.67963722	    -17.55866228
     11.90000000	     38.77941367	     15.66405089	     19.92940675	   -131.88901316	    784.05865472	      7.95438292	     15.19073448	     41.61878733	     40.62491114	     45.00000000	    -27.90304057	   2072.28969457	   -839.11756757	    148.38311605	   -126.49293153	   1089.92604440	      4.81988705	     16.84834331	     13.70552309	      5.77725067	    -45.00000000	    -35.16434383	     45.00000000	    -44.54394522	  -2070.75951282	    262.93162957	    137.89250039	    156.72532954	   2528.41024807	      6.33405263	     10.64639517	    -17.60402392
     11.91000000	     38.73604675	     16.00321087	     20.27079797	   -128.28353674	    781.73378254	      7.94316818	     15.06780260	     41.61925588	     40.56042993	     45.00000000	    -27.93472817	   2072.46518901	   -839.39125101	    148.43829272	   -126.34702090	   1089.74820948	      5.83747128	     16.79751248	     13.66760625	      5.91763854	    -45.00000000	    -35.05167436	     45.00000000	    -44.79051950	  -2071.07146521	    262.65518911	    137.86969972	    156.59255037	   2528.29470085	      7.53115148	     10.63923513	    -17.63315957
     11.92000000	     38.46128980	     16.29119746	     20.72000720	   -124.71068464	    779.49071549	      7.92368446	     14.68337515	     41.46536423	     40.46950829	     44.60566865	    -27.86225939	   2072.66429799	   -839.45086113	    148.60160730	   -126.22915416	   1089.60532607	      6.77505127	     16.75520936	     13.56264872	      6.26660823	    -45.00000000	    -35.06476485	     45.00000000	    -44.56004200	  -2071.05239193	    262.31628303	    137.88952230	    155.85635994	   2528.06658035	      8.71440787	     10.56675846	    -17.63078066
     11.93000000	     38.61611020	     16.00036088	     20.37919164	   -121.17671931	    777.34906206	      7.89781511	     15.61143606	     41.39410871	     41.08233801	     44.34914344	    -27.09437211	   2072.39333463	   -839.87959835	    148.95417022	   -125.34748771	   1089.52045540	      8.27305749	     16.76143623	     13.74442443	      5.20701053	    -45.00000000	    -34.96493333	     45.00000000	    -44.53481941	  -2071.84834863	    262.20347741	    138.01332775	    156.38210004	   2528.00701084	     10.03620836	     10.37331019	    -17.70693066
     11.94000000	     38.50712472	     16.05575287	     20.47731477	   -117.68802937	    775.32780608	      7.86712736	     15.58437981	     41.22253220	     41.26334039	     43.89773739	    -26.58439180	   2072.19857363	   -840.09978650	    149.09590481	   -124.75591968	   1089.38994746	      9.63731946	     16.76860724	     13.58190940	      5.16374294	    -45.00000000	    -35.03010461	     45.00000000	    -44.70318324	  -2072.16512010	    262.13004993	    137.89648700	    156.77072553	   2527.91696388	     11.36996661	     10.37748494	    -17.75970121
     11.95000000	     38.37081575	     15.80788518	     20.24127193	   -114.24663213	    773.43904027	      7.83318278	     15.53948946	     40.99374143	     41.64447462	     43.25282330	    -25.74163420	   2071.82389657	   -840.38333717	    149.31175634	   -124.10579257	   1089.28823839	     10.98479654	     16.77175299	     13.50586262	      5.05666656	    -45.00000000	    -35.25613186	     45.00000000	    -43.94702021	  -2072.40844983	    261.90543663	    138.00298397	    156.53073152	   2527.76855153	     12.76394041	     10.19002542	    -17.81191884
